<svg xmlns="http://www.w3.org/2000/svg" xmlns:xlink="http://www.w3.org/1999/xlink" width="500" zoomAndPan="magnify" viewBox="0 0 375 374.999991" height="500" preserveAspectRatio="xMidYMid meet" version="1.0"><defs><g/><clipPath id="1c6a043476"><path d="M 0 157.246094 L 375 157.246094 L 375 196.933594 L 0 196.933594 Z M 0 157.246094 " clip-rule="nonzero"/></clipPath></defs><rect x="-37.5" width="450" fill="#ffffff" y="-37.499999" height="449.999989" fill-opacity="1"/><rect x="-37.5" width="450" fill="#ffffff" y="-37.499999" height="449.999989" fill-opacity="1"/><rect x="-37.5" width="450" fill="#ffffff" y="-37.499999" height="449.999989" fill-opacity="1"/><g fill="#008037" fill-opacity="1"><g transform="translate(17.87563, 237.105927)"><g><path d="M 126.8125 -116.515625 L 125.296875 -116.515625 C 121.472656 -116.515625 117.984375 -114.992188 114.828125 -111.953125 C 113.023438 -110.378906 111.617188 -108.410156 110.609375 -106.046875 L 69.90625 -15.03125 C 65.738281 -5.90625 63.65625 -0.109375 63.65625 2.359375 L 62.140625 2.359375 L 14.6875 -105.875 C 13.113281 -109.476562 10.945312 -112.148438 8.1875 -113.890625 C 5.4375 -115.640625 2.648438 -116.515625 -0.171875 -116.515625 L -1.515625 -116.515625 L -1.515625 -118.203125 L 36.484375 -118.203125 L 36.484375 -116.515625 L 34.953125 -116.515625 C 31.578125 -116.515625 29.328125 -114.9375 28.203125 -111.78125 C 27.972656 -111.101562 27.859375 -110.3125 27.859375 -109.40625 C 27.859375 -108.507812 28.140625 -107.390625 28.703125 -106.046875 L 64 -17.5625 L 100.8125 -106.046875 C 101.257812 -107.390625 101.484375 -108.707031 101.484375 -110 C 101.484375 -111.300781 100.890625 -112.710938 99.703125 -114.234375 C 98.523438 -115.753906 96.753906 -116.515625 94.390625 -116.515625 L 92.875 -116.515625 L 92.875 -118.203125 L 126.8125 -118.203125 Z M 126.8125 -116.515625 "/></g></g></g><g fill="#008037" fill-opacity="1"><g transform="translate(142.835138, 237.105927)"><g><path d="M 151.96875 -1.6875 L 154.671875 -1.6875 L 154.671875 0 L 118.03125 0 L 118.03125 -1.515625 L 120.5625 -1.515625 C 122.476562 -1.515625 124.109375 -2.273438 125.453125 -3.796875 C 126.804688 -5.316406 127.375 -6.976562 127.15625 -8.78125 L 119.546875 -93.71875 L 84.09375 -14.859375 C 80.9375 -7.992188 79.019531 -2.253906 78.34375 2.359375 L 76.65625 2.359375 L 33.4375 -91.359375 L 26.171875 -8.78125 C 25.941406 -6.976562 26.503906 -5.316406 27.859375 -3.796875 C 29.210938 -2.273438 30.789062 -1.515625 32.59375 -1.515625 L 35.296875 -1.515625 L 35.296875 0 L 2.53125 0 L 2.53125 -1.6875 L 5.234375 -1.6875 C 8.390625 -1.6875 11.117188 -2.644531 13.421875 -4.5625 C 15.734375 -6.476562 17.113281 -9.066406 17.5625 -12.328125 L 30.21875 -120.5625 L 31.921875 -120.5625 L 79.03125 -18.75 L 125.125 -120.5625 L 126.640625 -120.5625 L 139.640625 -12.328125 C 140.203125 -7.828125 142.457031 -4.675781 146.40625 -2.875 C 148.09375 -2.082031 149.945312 -1.6875 151.96875 -1.6875 Z M 151.96875 -1.6875 "/></g></g></g><g fill="#008037" fill-opacity="1"><g transform="translate(300.047719, 237.105927)"><g><path d="M 12.328125 -1.6875 C 15.253906 -1.6875 17.757812 -2.726562 19.84375 -4.8125 C 21.925781 -6.894531 23.023438 -9.398438 23.140625 -12.328125 L 23.140625 -106.046875 C 23.023438 -108.972656 21.925781 -111.445312 19.84375 -113.46875 C 17.757812 -115.5 15.253906 -116.515625 12.328125 -116.515625 L 10.125 -116.515625 L 10.125 -118.203125 L 47.109375 -118.203125 L 47.109375 -116.515625 L 44.921875 -116.515625 C 41.992188 -116.515625 39.488281 -115.5 37.40625 -113.46875 C 35.320312 -111.445312 34.222656 -108.972656 34.109375 -106.046875 L 34.109375 -12.328125 C 34.109375 -9.398438 35.175781 -6.894531 37.3125 -4.8125 C 39.457031 -2.726562 41.992188 -1.6875 44.921875 -1.6875 L 47.109375 -1.6875 L 47.109375 0 L 10.125 0 L 10.125 -1.6875 Z M 12.328125 -1.6875 "/></g></g></g><g clip-path="url(#1c6a043476)"><path fill="#f6f3f0" d="M -42.332031 157.246094 L 418.375 157.246094 L 418.375 197.441406 L -42.332031 197.441406 Z M -42.332031 157.246094 " fill-opacity="1" fill-rule="nonzero"/></g><g fill="#008037" fill-opacity="1"><g transform="translate(19.490946, 183.392814)"><g><path d="M 12.6875 -11.65625 L 12.53125 -11.65625 C 12.144531 -11.65625 11.796875 -11.503906 11.484375 -11.203125 C 11.304688 -11.046875 11.164062 -10.847656 11.0625 -10.609375 L 6.984375 -1.5 C 6.566406 -0.59375 6.359375 -0.015625 6.359375 0.234375 L 6.21875 0.234375 L 1.46875 -10.59375 C 1.3125 -10.945312 1.09375 -11.210938 0.8125 -11.390625 C 0.539062 -11.566406 0.265625 -11.65625 -0.015625 -11.65625 L -0.15625 -11.65625 L -0.15625 -11.828125 L 3.640625 -11.828125 L 3.640625 -11.65625 L 3.5 -11.65625 C 3.15625 -11.65625 2.925781 -11.5 2.8125 -11.1875 C 2.789062 -11.113281 2.78125 -11.03125 2.78125 -10.9375 C 2.78125 -10.851562 2.8125 -10.742188 2.875 -10.609375 L 6.40625 -1.75 L 10.078125 -10.609375 C 10.128906 -10.742188 10.15625 -10.875 10.15625 -11 C 10.15625 -11.132812 10.09375 -11.273438 9.96875 -11.421875 C 9.851562 -11.578125 9.675781 -11.65625 9.4375 -11.65625 L 9.28125 -11.65625 L 9.28125 -11.828125 L 12.6875 -11.828125 Z M 12.6875 -11.65625 "/></g></g></g><g fill="#008037" fill-opacity="1"><g transform="translate(37.154159, 183.392814)"><g><path d="M 1.234375 -0.171875 C 1.523438 -0.171875 1.773438 -0.273438 1.984375 -0.484375 C 2.191406 -0.691406 2.300781 -0.941406 2.3125 -1.234375 L 2.3125 -10.609375 C 2.300781 -10.898438 2.191406 -11.144531 1.984375 -11.34375 C 1.773438 -11.550781 1.523438 -11.65625 1.234375 -11.65625 L 1.015625 -11.65625 L 1.015625 -11.828125 L 4.71875 -11.828125 L 4.71875 -11.65625 L 4.5 -11.65625 C 4.195312 -11.65625 3.941406 -11.550781 3.734375 -11.34375 C 3.523438 -11.144531 3.414062 -10.898438 3.40625 -10.609375 L 3.40625 -1.234375 C 3.40625 -0.941406 3.507812 -0.691406 3.71875 -0.484375 C 3.9375 -0.273438 4.195312 -0.171875 4.5 -0.171875 L 4.71875 -0.171875 L 4.71875 0 L 1.015625 0 L 1.015625 -0.171875 Z M 1.234375 -0.171875 "/></g></g></g><g fill="#008037" fill-opacity="1"><g transform="translate(48.029012, 183.392814)"><g><path d="M 4.40625 -9.96875 C 3.988281 -9.96875 3.675781 -9.816406 3.46875 -9.515625 C 3.375 -9.378906 3.320312 -9.222656 3.3125 -9.046875 L 3.3125 0 C 3.3125 0.820312 3.003906 1.523438 2.390625 2.109375 C 1.773438 2.703125 1.050781 3 0.21875 3 L 0.21875 2.84375 C 0.769531 2.664062 1.242188 2.300781 1.640625 1.75 C 2.035156 1.195312 2.234375 0.613281 2.234375 0 L 2.234375 -9.125 C 2.210938 -9.351562 2.097656 -9.550781 1.890625 -9.71875 C 1.679688 -9.882812 1.425781 -9.96875 1.125 -9.96875 L 0.921875 -9.96875 L 0.90625 -10.140625 L 4.625 -10.140625 L 4.625 -9.96875 Z M 4.40625 -9.96875 "/></g></g></g><g fill="#008037" fill-opacity="1"><g transform="translate(58.414171, 183.392814)"><g><path d="M 11.140625 -0.171875 L 11.28125 -0.171875 L 11.28125 0 L 7.828125 0 L 7.828125 -0.171875 L 7.953125 -0.171875 C 8.171875 -0.171875 8.332031 -0.242188 8.4375 -0.390625 C 8.550781 -0.535156 8.609375 -0.671875 8.609375 -0.796875 C 8.609375 -0.929688 8.585938 -1.0625 8.546875 -1.1875 L 7.625 -3.421875 L 3.34375 -3.421875 L 2.421875 -1.234375 C 2.359375 -1.085938 2.328125 -0.945312 2.328125 -0.8125 C 2.328125 -0.6875 2.382812 -0.546875 2.5 -0.390625 C 2.613281 -0.242188 2.78125 -0.171875 3 -0.171875 L 3.140625 -0.171875 L 3.140625 0 L -0.078125 0 L -0.078125 -0.171875 L 0.046875 -0.171875 C 0.285156 -0.171875 0.523438 -0.25 0.765625 -0.40625 C 1.003906 -0.570312 1.207031 -0.820312 1.375 -1.15625 C 3.832031 -6.414062 5.113281 -9.171875 5.21875 -9.421875 C 5.40625 -9.898438 5.503906 -10.21875 5.515625 -10.375 L 5.671875 -10.375 L 9.84375 -1.15625 C 10.175781 -0.5 10.609375 -0.171875 11.140625 -0.171875 Z M 3.5625 -3.9375 L 7.421875 -3.9375 L 5.515625 -8.5625 Z M 3.5625 -3.9375 "/></g></g></g><g fill="#008037" fill-opacity="1"><g transform="translate(74.77712, 183.392814)"><g><path d="M 10.890625 -9.96875 L 10.6875 -9.96875 C 10.382812 -9.96875 10.09375 -9.882812 9.8125 -9.71875 C 9.539062 -9.550781 9.316406 -9.347656 9.140625 -9.109375 L 5.890625 -4.1875 L 5.890625 -1.078125 C 5.890625 -0.828125 5.984375 -0.613281 6.171875 -0.4375 C 6.367188 -0.257812 6.601562 -0.171875 6.875 -0.171875 L 7.078125 -0.171875 L 7.078125 0 L 3.609375 0 L 3.609375 -0.171875 L 3.8125 -0.171875 C 4.082031 -0.171875 4.3125 -0.257812 4.5 -0.4375 C 4.695312 -0.613281 4.796875 -0.828125 4.796875 -1.078125 L 4.796875 -4.203125 L 1.671875 -9.125 C 1.285156 -9.6875 0.769531 -9.96875 0.125 -9.96875 L -0.078125 -9.96875 L -0.078125 -10.140625 L 3.828125 -10.140625 L 3.828125 -9.96875 L 3.625 -9.96875 C 3.414062 -9.96875 3.257812 -9.898438 3.15625 -9.765625 C 3.0625 -9.628906 3.015625 -9.507812 3.015625 -9.40625 C 3.015625 -9.3125 3.03125 -9.226562 3.0625 -9.15625 L 5.515625 -4.78125 L 8.140625 -9.140625 C 8.171875 -9.222656 8.1875 -9.3125 8.1875 -9.40625 C 8.1875 -9.507812 8.140625 -9.628906 8.046875 -9.765625 C 7.953125 -9.898438 7.789062 -9.96875 7.5625 -9.96875 L 7.359375 -9.96875 L 7.359375 -10.140625 L 10.890625 -10.140625 Z M 10.890625 -9.96875 "/></g></g></g><g fill="#008037" fill-opacity="1"><g transform="translate(90.751681, 183.392814)"><g/></g></g><g fill="#008037" fill-opacity="1"><g transform="translate(100.140537, 183.392814)"><g><path d="M 15.203125 -0.171875 L 15.46875 -0.171875 L 15.46875 0 L 11.8125 0 L 11.8125 -0.15625 L 12.0625 -0.15625 C 12.25 -0.15625 12.410156 -0.226562 12.546875 -0.375 C 12.679688 -0.53125 12.738281 -0.695312 12.71875 -0.875 L 11.953125 -9.375 L 8.40625 -1.484375 C 8.09375 -0.796875 7.90625 -0.222656 7.84375 0.234375 L 7.671875 0.234375 L 3.34375 -9.140625 L 2.625 -0.875 C 2.59375 -0.695312 2.644531 -0.53125 2.78125 -0.375 C 2.914062 -0.226562 3.078125 -0.15625 3.265625 -0.15625 L 3.53125 -0.15625 L 3.53125 0 L 0.25 0 L 0.25 -0.171875 L 0.53125 -0.171875 C 0.84375 -0.171875 1.113281 -0.265625 1.34375 -0.453125 C 1.570312 -0.648438 1.707031 -0.910156 1.75 -1.234375 L 3.015625 -12.0625 L 3.1875 -12.0625 L 7.90625 -1.875 L 12.515625 -12.0625 L 12.671875 -12.0625 L 13.96875 -1.234375 C 14.019531 -0.785156 14.242188 -0.46875 14.640625 -0.28125 C 14.804688 -0.207031 14.992188 -0.171875 15.203125 -0.171875 Z M 15.203125 -0.171875 "/></g></g></g><g fill="#008037" fill-opacity="1"><g transform="translate(121.029051, 183.392814)"><g><path d="M 12.09375 -0.171875 L 12.234375 -0.171875 L 12.234375 0 L 8.421875 0 L 8.421875 -0.171875 L 8.578125 -0.171875 C 8.816406 -0.171875 8.992188 -0.242188 9.109375 -0.390625 C 9.222656 -0.546875 9.28125 -0.691406 9.28125 -0.828125 C 9.28125 -0.960938 9.257812 -1.097656 9.21875 -1.234375 L 8.140625 -4.109375 L 3.578125 -4.109375 L 2.453125 -1.21875 C 2.398438 -1.082031 2.375 -0.945312 2.375 -0.8125 C 2.375 -0.6875 2.429688 -0.546875 2.546875 -0.390625 C 2.671875 -0.242188 2.851562 -0.171875 3.09375 -0.171875 L 3.234375 -0.171875 L 3.234375 0 L -0.15625 0 L -0.15625 -0.171875 L 0 -0.171875 C 0.28125 -0.171875 0.554688 -0.257812 0.828125 -0.4375 C 1.097656 -0.613281 1.316406 -0.878906 1.484375 -1.234375 L 5.296875 -10.3125 C 5.710938 -11.226562 5.921875 -11.8125 5.921875 -12.0625 L 6.078125 -12.0625 L 10.609375 -1.234375 C 10.765625 -0.878906 10.976562 -0.613281 11.25 -0.4375 C 11.519531 -0.257812 11.800781 -0.171875 12.09375 -0.171875 Z M 3.78125 -4.609375 L 7.9375 -4.609375 L 5.90625 -10.03125 Z M 3.78125 -4.609375 "/></g></g></g><g fill="#008037" fill-opacity="1"><g transform="translate(138.219443, 183.392814)"><g><path d="M 4.5 -11.296875 L 3.40625 -11.296875 L 3.40625 -1.234375 C 3.40625 -0.941406 3.507812 -0.691406 3.71875 -0.484375 C 3.925781 -0.273438 4.1875 -0.171875 4.5 -0.171875 L 4.703125 -0.171875 L 4.71875 0 L 1.015625 0 L 1.015625 -0.171875 L 1.234375 -0.171875 C 1.523438 -0.171875 1.773438 -0.269531 1.984375 -0.46875 C 2.191406 -0.675781 2.300781 -0.925781 2.3125 -1.21875 L 2.3125 -10.59375 C 2.300781 -10.882812 2.191406 -11.132812 1.984375 -11.34375 C 1.773438 -11.550781 1.523438 -11.65625 1.234375 -11.65625 L 1.015625 -11.65625 L 1.015625 -11.828125 L 5.578125 -11.828125 C 6.597656 -11.828125 7.398438 -11.539062 7.984375 -10.96875 C 8.578125 -10.40625 8.875 -9.664062 8.875 -8.75 C 8.875 -7.84375 8.59375 -7.0625 8.03125 -6.40625 C 7.476562 -5.75 6.800781 -5.421875 6 -5.421875 C 6.164062 -5.335938 6.363281 -5.179688 6.59375 -4.953125 C 6.820312 -4.722656 7.03125 -4.484375 7.21875 -4.234375 C 8.1875 -2.847656 8.816406 -1.992188 9.109375 -1.671875 C 9.398438 -1.359375 9.609375 -1.140625 9.734375 -1.015625 C 9.859375 -0.898438 9.992188 -0.785156 10.140625 -0.671875 C 10.285156 -0.554688 10.429688 -0.46875 10.578125 -0.40625 C 10.898438 -0.25 11.25 -0.171875 11.625 -0.171875 L 11.625 0 L 10.6875 0 C 10.207031 0 9.757812 -0.0859375 9.34375 -0.265625 C 8.925781 -0.441406 8.613281 -0.617188 8.40625 -0.796875 C 8.195312 -0.984375 8.015625 -1.164062 7.859375 -1.34375 C 7.710938 -1.519531 7.296875 -2.101562 6.609375 -3.09375 C 5.921875 -4.082031 5.519531 -4.644531 5.40625 -4.78125 C 5.289062 -4.925781 5.171875 -5.066406 5.046875 -5.203125 C 4.691406 -5.585938 4.332031 -5.78125 3.96875 -5.78125 L 3.96875 -5.953125 C 4.0625 -5.929688 4.179688 -5.921875 4.328125 -5.921875 C 4.472656 -5.921875 4.648438 -5.929688 4.859375 -5.953125 C 6.253906 -5.984375 7.132812 -6.566406 7.5 -7.703125 C 7.5625 -7.929688 7.59375 -8.140625 7.59375 -8.328125 C 7.59375 -8.523438 7.59375 -8.65625 7.59375 -8.71875 C 7.570312 -9.46875 7.375 -10.070312 7 -10.53125 C 6.632812 -11 6.132812 -11.25 5.5 -11.28125 C 5.226562 -11.289062 4.894531 -11.296875 4.5 -11.296875 Z M 4.5 -11.296875 "/></g></g></g><g fill="#008037" fill-opacity="1"><g transform="translate(154.818796, 183.392814)"><g><path d="M 5.140625 0 L 1.015625 0 L 1.03125 -0.171875 L 1.234375 -0.171875 C 1.523438 -0.171875 1.773438 -0.269531 1.984375 -0.46875 C 2.191406 -0.675781 2.300781 -0.925781 2.3125 -1.21875 L 2.3125 -10.609375 C 2.3125 -10.898438 2.203125 -11.144531 1.984375 -11.34375 C 1.773438 -11.550781 1.523438 -11.65625 1.234375 -11.65625 L 1.03125 -11.65625 L 1.015625 -11.828125 L 4.375 -11.828125 C 5.53125 -11.828125 6.429688 -11.566406 7.078125 -11.046875 C 7.722656 -10.535156 8.046875 -9.851562 8.046875 -9 C 8.046875 -8.320312 7.863281 -7.757812 7.5 -7.3125 C 7.132812 -6.875 6.695312 -6.582031 6.1875 -6.4375 C 7.070312 -6.300781 7.769531 -5.929688 8.28125 -5.328125 C 8.800781 -4.734375 9.0625 -3.984375 9.0625 -3.078125 C 9.0625 -2.171875 8.71875 -1.429688 8.03125 -0.859375 C 7.34375 -0.285156 6.378906 0 5.140625 0 Z M 3.40625 -0.609375 L 5.0625 -0.609375 C 5.070312 -0.609375 5.082031 -0.609375 5.09375 -0.609375 C 5.957031 -0.609375 6.625 -0.84375 7.09375 -1.3125 C 7.5625 -1.78125 7.796875 -2.441406 7.796875 -3.296875 C 7.796875 -3.773438 7.710938 -4.195312 7.546875 -4.5625 C 7.390625 -4.9375 7.1875 -5.226562 6.9375 -5.4375 C 6.289062 -5.976562 5.3125 -6.25 4 -6.25 C 4 -6.25 3.992188 -6.25 3.984375 -6.25 L 3.984375 -6.40625 C 3.992188 -6.40625 4.046875 -6.40625 4.140625 -6.40625 C 4.242188 -6.40625 4.382812 -6.414062 4.5625 -6.4375 C 4.738281 -6.457031 4.9375 -6.492188 5.15625 -6.546875 C 5.382812 -6.609375 5.585938 -6.703125 5.765625 -6.828125 C 5.953125 -6.953125 6.125 -7.097656 6.28125 -7.265625 C 6.601562 -7.640625 6.765625 -8.191406 6.765625 -8.921875 C 6.765625 -9.660156 6.550781 -10.238281 6.125 -10.65625 C 5.707031 -11.070312 5.101562 -11.28125 4.3125 -11.28125 L 3.40625 -11.28125 Z M 3.40625 -0.609375 "/></g></g></g><g fill="#008037" fill-opacity="1"><g transform="translate(169.881494, 183.392814)"><g><path d="M 1.234375 -0.171875 C 1.523438 -0.171875 1.773438 -0.273438 1.984375 -0.484375 C 2.191406 -0.691406 2.300781 -0.941406 2.3125 -1.234375 L 2.3125 -10.59375 C 2.300781 -10.882812 2.191406 -11.132812 1.984375 -11.34375 C 1.773438 -11.550781 1.523438 -11.65625 1.234375 -11.65625 L 1.015625 -11.65625 L 1.015625 -11.828125 L 4.71875 -11.828125 L 4.71875 -11.65625 L 4.5 -11.65625 C 4.09375 -11.65625 3.78125 -11.476562 3.5625 -11.125 C 3.457031 -10.957031 3.40625 -10.78125 3.40625 -10.59375 L 3.40625 -0.53125 L 5.828125 -0.53125 C 6.660156 -0.53125 7.296875 -0.710938 7.734375 -1.078125 C 8.171875 -1.453125 8.535156 -2.003906 8.828125 -2.734375 L 9 -2.734375 L 8.015625 0 L 1.015625 0 L 1.015625 -0.171875 Z M 1.234375 -0.171875 "/></g></g></g><g fill="#008037" fill-opacity="1"><g transform="translate(184.538914, 183.392814)"><g><path d="M 1.234375 -0.171875 C 1.523438 -0.171875 1.773438 -0.273438 1.984375 -0.484375 C 2.191406 -0.691406 2.300781 -0.941406 2.3125 -1.234375 L 2.3125 -10.6875 C 2.28125 -10.957031 2.160156 -11.1875 1.953125 -11.375 C 1.753906 -11.5625 1.515625 -11.65625 1.234375 -11.65625 L 1.03125 -11.65625 L 1.015625 -11.828125 L 5.96875 -11.828125 C 6.3125 -11.828125 6.6875 -11.859375 7.09375 -11.921875 C 7.507812 -11.992188 7.800781 -12.0625 7.96875 -12.125 L 7.96875 -10 L 7.796875 -10 L 7.796875 -10.296875 C 7.796875 -10.566406 7.703125 -10.796875 7.515625 -10.984375 C 7.335938 -11.179688 7.117188 -11.285156 6.859375 -11.296875 L 3.40625 -11.296875 L 3.40625 -6.078125 L 6.265625 -6.078125 C 6.492188 -6.085938 6.6875 -6.171875 6.84375 -6.328125 C 7 -6.492188 7.078125 -6.691406 7.078125 -6.921875 L 7.078125 -7.15625 L 7.25 -7.15625 L 7.25 -4.5 L 7.078125 -4.5 L 7.078125 -4.75 C 7.078125 -4.96875 7 -5.15625 6.84375 -5.3125 C 6.695312 -5.476562 6.507812 -5.566406 6.28125 -5.578125 L 3.40625 -5.578125 L 3.40625 -0.53125 L 5.828125 -0.53125 C 6.660156 -0.53125 7.296875 -0.710938 7.734375 -1.078125 C 8.171875 -1.453125 8.535156 -2.003906 8.828125 -2.734375 L 9 -2.734375 L 8.015625 0 L 1.015625 0 L 1.015625 -0.171875 Z M 1.234375 -0.171875 "/></g></g></g><g fill="#008037" fill-opacity="1"><g transform="translate(199.449637, 183.392814)"><g/></g></g><g fill="#008037" fill-opacity="1"><g transform="translate(208.838493, 183.392814)"><g><path d="M 1.234375 -0.171875 C 1.523438 -0.171875 1.773438 -0.273438 1.984375 -0.484375 C 2.191406 -0.691406 2.300781 -0.941406 2.3125 -1.234375 L 2.3125 -10.609375 C 2.300781 -10.898438 2.191406 -11.144531 1.984375 -11.34375 C 1.773438 -11.550781 1.523438 -11.65625 1.234375 -11.65625 L 1.015625 -11.65625 L 1.015625 -11.828125 L 4.71875 -11.828125 L 4.71875 -11.65625 L 4.5 -11.65625 C 4.195312 -11.65625 3.941406 -11.550781 3.734375 -11.34375 C 3.523438 -11.144531 3.414062 -10.898438 3.40625 -10.609375 L 3.40625 -1.234375 C 3.40625 -0.941406 3.507812 -0.691406 3.71875 -0.484375 C 3.9375 -0.273438 4.195312 -0.171875 4.5 -0.171875 L 4.71875 -0.171875 L 4.71875 0 L 1.015625 0 L 1.015625 -0.171875 Z M 1.234375 -0.171875 "/></g></g></g><g fill="#008037" fill-opacity="1"><g transform="translate(219.713342, 183.392814)"><g><path d="M 13.140625 -11.65625 C 12.859375 -11.65625 12.613281 -11.554688 12.40625 -11.359375 C 12.207031 -11.160156 12.101562 -10.921875 12.09375 -10.640625 L 12.09375 -1.921875 C 12.09375 -1.273438 12.132812 -0.65625 12.21875 -0.0625 L 12.25 0.234375 L 12.09375 0.234375 L 2.890625 -9.59375 L 2.890625 -1.1875 C 2.898438 -0.789062 3.070312 -0.492188 3.40625 -0.296875 C 3.5625 -0.210938 3.734375 -0.171875 3.921875 -0.171875 L 4.234375 -0.171875 L 4.234375 0 L 0.765625 0 L 0.765625 -0.171875 L 1.078125 -0.171875 C 1.359375 -0.171875 1.597656 -0.269531 1.796875 -0.46875 C 2.003906 -0.664062 2.109375 -0.910156 2.109375 -1.203125 L 2.109375 -9.96875 C 2.109375 -10.65625 2.070312 -11.269531 2 -11.8125 L 1.953125 -12.078125 L 2.125 -12.078125 L 11.328125 -2.25 L 11.328125 -10.625 C 11.316406 -10.914062 11.207031 -11.160156 11 -11.359375 C 10.800781 -11.554688 10.5625 -11.65625 10.28125 -11.65625 L 9.96875 -11.65625 L 9.96875 -11.828125 L 13.4375 -11.828125 L 13.4375 -11.65625 Z M 13.140625 -11.65625 "/></g></g></g><g fill="#008037" fill-opacity="1"><g transform="translate(239.082075, 183.392814)"><g><path d="M 6.734375 -11.828125 C 8.535156 -11.828125 9.992188 -11.28125 11.109375 -10.1875 C 12.234375 -9.101562 12.796875 -7.675781 12.796875 -5.90625 C 12.796875 -4.144531 12.234375 -2.71875 11.109375 -1.625 C 9.992188 -0.539062 8.535156 0 6.734375 0 L 1.015625 0 L 1.015625 -0.171875 L 1.234375 -0.171875 C 1.523438 -0.171875 1.773438 -0.273438 1.984375 -0.484375 C 2.191406 -0.691406 2.300781 -0.941406 2.3125 -1.234375 L 2.3125 -10.6875 C 2.3125 -10.957031 2.203125 -11.1875 1.984375 -11.375 C 1.765625 -11.5625 1.515625 -11.65625 1.234375 -11.65625 L 1.03125 -11.65625 L 1.015625 -11.828125 Z M 3.40625 -11.3125 L 3.40625 -0.5 L 6.734375 -0.5 C 7.679688 -0.5 8.519531 -0.722656 9.25 -1.171875 C 9.976562 -1.628906 10.539062 -2.265625 10.9375 -3.078125 C 11.332031 -3.898438 11.53125 -4.84375 11.53125 -5.90625 C 11.53125 -7.53125 11.085938 -8.835938 10.203125 -9.828125 C 9.328125 -10.816406 8.171875 -11.3125 6.734375 -11.3125 Z M 3.40625 -11.3125 "/></g></g></g><g fill="#008037" fill-opacity="1"><g transform="translate(257.87668, 183.392814)"><g><path d="M 12.421875 -11.65625 L 12.140625 -11.65625 C 11.910156 -11.65625 11.707031 -11.578125 11.53125 -11.421875 C 11.351562 -11.273438 11.257812 -11.085938 11.25 -10.859375 L 11.25 -4.171875 C 11.25 -2.859375 10.832031 -1.796875 10 -0.984375 C 9.164062 -0.171875 8.054688 0.234375 6.671875 0.234375 C 5.285156 0.234375 4.160156 -0.164062 3.296875 -0.96875 C 2.441406 -1.769531 2.015625 -2.832031 2.015625 -4.15625 L 2.015625 -10.8125 C 2.015625 -11.144531 1.867188 -11.390625 1.578125 -11.546875 C 1.441406 -11.617188 1.285156 -11.65625 1.109375 -11.65625 L 0.84375 -11.65625 L 0.84375 -11.828125 L 4.265625 -11.828125 L 4.265625 -11.65625 L 4 -11.65625 C 3.75 -11.65625 3.539062 -11.578125 3.375 -11.421875 C 3.207031 -11.273438 3.117188 -11.082031 3.109375 -10.84375 L 3.109375 -4.390625 C 3.109375 -3.160156 3.4375 -2.164062 4.09375 -1.40625 C 4.75 -0.65625 5.628906 -0.28125 6.734375 -0.28125 C 7.835938 -0.28125 8.734375 -0.640625 9.421875 -1.359375 C 10.109375 -2.078125 10.453125 -3.015625 10.453125 -4.171875 L 10.453125 -10.84375 C 10.441406 -11.082031 10.351562 -11.273438 10.1875 -11.421875 C 10.019531 -11.578125 9.8125 -11.65625 9.5625 -11.65625 L 9.296875 -11.65625 L 9.296875 -11.828125 L 12.421875 -11.828125 Z M 12.421875 -11.65625 "/></g></g></g><g fill="#008037" fill-opacity="1"><g transform="translate(276.299779, 183.392814)"><g><path d="M 1.03125 -0.6875 C 1 -0.84375 0.984375 -1.144531 0.984375 -1.59375 C 0.984375 -2.050781 1.066406 -2.535156 1.234375 -3.046875 L 1.390625 -3.046875 C 1.378906 -2.921875 1.375 -2.796875 1.375 -2.671875 C 1.375 -1.984375 1.582031 -1.410156 2 -0.953125 C 2.414062 -0.492188 2.960938 -0.265625 3.640625 -0.265625 C 4.359375 -0.265625 4.941406 -0.476562 5.390625 -0.90625 C 5.847656 -1.332031 6.078125 -1.867188 6.078125 -2.515625 C 6.078125 -3.171875 5.859375 -3.703125 5.421875 -4.109375 L 2.171875 -7.109375 C 1.566406 -7.671875 1.265625 -8.351562 1.265625 -9.15625 C 1.265625 -9.957031 1.53125 -10.640625 2.0625 -11.203125 C 2.601562 -11.773438 3.328125 -12.0625 4.234375 -12.0625 C 4.660156 -12.0625 5.144531 -12.003906 5.6875 -11.890625 L 6.34375 -11.890625 L 6.34375 -9.8125 L 6.203125 -9.8125 C 6.203125 -10.34375 6.015625 -10.765625 5.640625 -11.078125 C 5.273438 -11.390625 4.804688 -11.546875 4.234375 -11.546875 C 3.660156 -11.546875 3.179688 -11.351562 2.796875 -10.96875 C 2.410156 -10.59375 2.21875 -10.117188 2.21875 -9.546875 C 2.21875 -8.972656 2.441406 -8.476562 2.890625 -8.0625 L 6.21875 -4.984375 C 6.78125 -4.460938 7.0625 -3.75 7.0625 -2.84375 C 7.0625 -1.945312 6.773438 -1.207031 6.203125 -0.625 C 5.628906 -0.0507812 4.863281 0.234375 3.90625 0.234375 C 3.40625 0.234375 2.875 0.15625 2.3125 0 C 1.757812 -0.144531 1.332031 -0.375 1.03125 -0.6875 Z M 1.03125 -0.6875 "/></g></g></g><g fill="#008037" fill-opacity="1"><g transform="translate(289.488083, 183.392814)"><g><path d="M 9.953125 -10.3125 C 9.953125 -10.582031 9.851562 -10.816406 9.65625 -11.015625 C 9.46875 -11.210938 9.242188 -11.316406 8.984375 -11.328125 L 5.78125 -11.328125 L 5.78125 -1.21875 C 5.789062 -0.925781 5.898438 -0.675781 6.109375 -0.46875 C 6.316406 -0.269531 6.566406 -0.171875 6.859375 -0.171875 L 7.078125 -0.171875 L 7.078125 0 L 3.375 0 L 3.375 -0.171875 L 3.59375 -0.171875 C 3.882812 -0.171875 4.132812 -0.269531 4.34375 -0.46875 C 4.550781 -0.675781 4.660156 -0.921875 4.671875 -1.203125 L 4.671875 -11.328125 L 1.46875 -11.328125 C 1.195312 -11.316406 0.96875 -11.210938 0.78125 -11.015625 C 0.59375 -10.816406 0.5 -10.582031 0.5 -10.3125 L 0.5 -10.03125 L 0.34375 -10.015625 L 0.34375 -12.140625 C 0.507812 -12.078125 0.800781 -12.007812 1.21875 -11.9375 C 1.632812 -11.875 2.015625 -11.84375 2.359375 -11.84375 L 8.078125 -11.84375 C 8.628906 -11.84375 9.085938 -11.882812 9.453125 -11.96875 C 9.816406 -12.050781 10.039062 -12.109375 10.125 -12.140625 L 10.125 -10.015625 L 9.953125 -10.03125 Z M 9.953125 -10.3125 "/></g></g></g><g fill="#008037" fill-opacity="1"><g transform="translate(305.091155, 183.392814)"><g><path d="M 4.5 -11.296875 L 3.40625 -11.296875 L 3.40625 -1.234375 C 3.40625 -0.941406 3.507812 -0.691406 3.71875 -0.484375 C 3.925781 -0.273438 4.1875 -0.171875 4.5 -0.171875 L 4.703125 -0.171875 L 4.71875 0 L 1.015625 0 L 1.015625 -0.171875 L 1.234375 -0.171875 C 1.523438 -0.171875 1.773438 -0.269531 1.984375 -0.46875 C 2.191406 -0.675781 2.300781 -0.925781 2.3125 -1.21875 L 2.3125 -10.59375 C 2.300781 -10.882812 2.191406 -11.132812 1.984375 -11.34375 C 1.773438 -11.550781 1.523438 -11.65625 1.234375 -11.65625 L 1.015625 -11.65625 L 1.015625 -11.828125 L 5.578125 -11.828125 C 6.597656 -11.828125 7.398438 -11.539062 7.984375 -10.96875 C 8.578125 -10.40625 8.875 -9.664062 8.875 -8.75 C 8.875 -7.84375 8.59375 -7.0625 8.03125 -6.40625 C 7.476562 -5.75 6.800781 -5.421875 6 -5.421875 C 6.164062 -5.335938 6.363281 -5.179688 6.59375 -4.953125 C 6.820312 -4.722656 7.03125 -4.484375 7.21875 -4.234375 C 8.1875 -2.847656 8.816406 -1.992188 9.109375 -1.671875 C 9.398438 -1.359375 9.609375 -1.140625 9.734375 -1.015625 C 9.859375 -0.898438 9.992188 -0.785156 10.140625 -0.671875 C 10.285156 -0.554688 10.429688 -0.46875 10.578125 -0.40625 C 10.898438 -0.25 11.25 -0.171875 11.625 -0.171875 L 11.625 0 L 10.6875 0 C 10.207031 0 9.757812 -0.0859375 9.34375 -0.265625 C 8.925781 -0.441406 8.613281 -0.617188 8.40625 -0.796875 C 8.195312 -0.984375 8.015625 -1.164062 7.859375 -1.34375 C 7.710938 -1.519531 7.296875 -2.101562 6.609375 -3.09375 C 5.921875 -4.082031 5.519531 -4.644531 5.40625 -4.78125 C 5.289062 -4.925781 5.171875 -5.066406 5.046875 -5.203125 C 4.691406 -5.585938 4.332031 -5.78125 3.96875 -5.78125 L 3.96875 -5.953125 C 4.0625 -5.929688 4.179688 -5.921875 4.328125 -5.921875 C 4.472656 -5.921875 4.648438 -5.929688 4.859375 -5.953125 C 6.253906 -5.984375 7.132812 -6.566406 7.5 -7.703125 C 7.5625 -7.929688 7.59375 -8.140625 7.59375 -8.328125 C 7.59375 -8.523438 7.59375 -8.65625 7.59375 -8.71875 C 7.570312 -9.46875 7.375 -10.070312 7 -10.53125 C 6.632812 -11 6.132812 -11.25 5.5 -11.28125 C 5.226562 -11.289062 4.894531 -11.296875 4.5 -11.296875 Z M 4.5 -11.296875 "/></g></g></g><g fill="#008037" fill-opacity="1"><g transform="translate(321.690525, 183.392814)"><g><path d="M 1.234375 -0.171875 C 1.523438 -0.171875 1.773438 -0.273438 1.984375 -0.484375 C 2.191406 -0.691406 2.300781 -0.941406 2.3125 -1.234375 L 2.3125 -10.609375 C 2.300781 -10.898438 2.191406 -11.144531 1.984375 -11.34375 C 1.773438 -11.550781 1.523438 -11.65625 1.234375 -11.65625 L 1.015625 -11.65625 L 1.015625 -11.828125 L 4.71875 -11.828125 L 4.71875 -11.65625 L 4.5 -11.65625 C 4.195312 -11.65625 3.941406 -11.550781 3.734375 -11.34375 C 3.523438 -11.144531 3.414062 -10.898438 3.40625 -10.609375 L 3.40625 -1.234375 C 3.40625 -0.941406 3.507812 -0.691406 3.71875 -0.484375 C 3.9375 -0.273438 4.195312 -0.171875 4.5 -0.171875 L 4.71875 -0.171875 L 4.71875 0 L 1.015625 0 L 1.015625 -0.171875 Z M 1.234375 -0.171875 "/></g></g></g><g fill="#008037" fill-opacity="1"><g transform="translate(332.56539, 183.392814)"><g><path d="M 1.234375 -0.171875 C 1.523438 -0.171875 1.773438 -0.273438 1.984375 -0.484375 C 2.191406 -0.691406 2.300781 -0.941406 2.3125 -1.234375 L 2.3125 -10.6875 C 2.28125 -10.957031 2.160156 -11.1875 1.953125 -11.375 C 1.753906 -11.5625 1.515625 -11.65625 1.234375 -11.65625 L 1.03125 -11.65625 L 1.015625 -11.828125 L 5.96875 -11.828125 C 6.3125 -11.828125 6.6875 -11.859375 7.09375 -11.921875 C 7.507812 -11.992188 7.800781 -12.0625 7.96875 -12.125 L 7.96875 -10 L 7.796875 -10 L 7.796875 -10.296875 C 7.796875 -10.566406 7.703125 -10.796875 7.515625 -10.984375 C 7.335938 -11.179688 7.117188 -11.285156 6.859375 -11.296875 L 3.40625 -11.296875 L 3.40625 -6.078125 L 6.265625 -6.078125 C 6.492188 -6.085938 6.6875 -6.171875 6.84375 -6.328125 C 7 -6.492188 7.078125 -6.691406 7.078125 -6.921875 L 7.078125 -7.15625 L 7.25 -7.15625 L 7.25 -4.5 L 7.078125 -4.5 L 7.078125 -4.75 C 7.078125 -4.96875 7 -5.15625 6.84375 -5.3125 C 6.695312 -5.476562 6.507812 -5.566406 6.28125 -5.578125 L 3.40625 -5.578125 L 3.40625 -0.53125 L 5.828125 -0.53125 C 6.660156 -0.53125 7.296875 -0.710938 7.734375 -1.078125 C 8.171875 -1.453125 8.535156 -2.003906 8.828125 -2.734375 L 9 -2.734375 L 8.015625 0 L 1.015625 0 L 1.015625 -0.171875 Z M 1.234375 -0.171875 "/></g></g></g><g fill="#008037" fill-opacity="1"><g transform="translate(347.476112, 183.392814)"><g><path d="M 1.03125 -0.6875 C 1 -0.84375 0.984375 -1.144531 0.984375 -1.59375 C 0.984375 -2.050781 1.066406 -2.535156 1.234375 -3.046875 L 1.390625 -3.046875 C 1.378906 -2.921875 1.375 -2.796875 1.375 -2.671875 C 1.375 -1.984375 1.582031 -1.410156 2 -0.953125 C 2.414062 -0.492188 2.960938 -0.265625 3.640625 -0.265625 C 4.359375 -0.265625 4.941406 -0.476562 5.390625 -0.90625 C 5.847656 -1.332031 6.078125 -1.867188 6.078125 -2.515625 C 6.078125 -3.171875 5.859375 -3.703125 5.421875 -4.109375 L 2.171875 -7.109375 C 1.566406 -7.671875 1.265625 -8.351562 1.265625 -9.15625 C 1.265625 -9.957031 1.53125 -10.640625 2.0625 -11.203125 C 2.601562 -11.773438 3.328125 -12.0625 4.234375 -12.0625 C 4.660156 -12.0625 5.144531 -12.003906 5.6875 -11.890625 L 6.34375 -11.890625 L 6.34375 -9.8125 L 6.203125 -9.8125 C 6.203125 -10.34375 6.015625 -10.765625 5.640625 -11.078125 C 5.273438 -11.390625 4.804688 -11.546875 4.234375 -11.546875 C 3.660156 -11.546875 3.179688 -11.351562 2.796875 -10.96875 C 2.410156 -10.59375 2.21875 -10.117188 2.21875 -9.546875 C 2.21875 -8.972656 2.441406 -8.476562 2.890625 -8.0625 L 6.21875 -4.984375 C 6.78125 -4.460938 7.0625 -3.75 7.0625 -2.84375 C 7.0625 -1.945312 6.773438 -1.207031 6.203125 -0.625 C 5.628906 -0.0507812 4.863281 0.234375 3.90625 0.234375 C 3.40625 0.234375 2.875 0.15625 2.3125 0 C 1.757812 -0.144531 1.332031 -0.375 1.03125 -0.6875 Z M 1.03125 -0.6875 "/></g></g></g></svg>