<svg xmlns="http://www.w3.org/2000/svg" xmlns:xlink="http://www.w3.org/1999/xlink" width="454" zoomAndPan="magnify" viewBox="0 0 340.5 149.999998" height="200" preserveAspectRatio="xMidYMid meet" version="1.0"><defs><g/><clipPath id="710d062cc2"><path d="M 0 0.109375 L 340 0.109375 L 340 149.890625 L 0 149.890625 Z M 0 0.109375 " clip-rule="nonzero"/></clipPath><clipPath id="66d550b1ac"><path d="M 0 54.449219 L 340 54.449219 L 340 88.367188 L 0 88.367188 Z M 0 54.449219 " clip-rule="nonzero"/></clipPath></defs><g clip-path="url(#710d062cc2)"><path fill="#ffffff" d="M 0 0.109375 L 340.5 0.109375 L 340.5 157.609375 L 0 157.609375 Z M 0 0.109375 " fill-opacity="1" fill-rule="nonzero"/><path fill="#ffffff" d="M 0 0.109375 L 340.5 0.109375 L 340.5 150.109375 L 0 150.109375 Z M 0 0.109375 " fill-opacity="1" fill-rule="nonzero"/><path fill="#f6f3f0" d="M 0 0.109375 L 340.5 0.109375 L 340.5 150.109375 L 0 150.109375 Z M 0 0.109375 " fill-opacity="1" fill-rule="nonzero"/></g><g fill="#008037" fill-opacity="1"><g transform="translate(25.281719, 122.701769)"><g><path d="M 108.375 -99.578125 L 107.078125 -99.578125 C 103.804688 -99.578125 100.820312 -98.273438 98.125 -95.671875 C 96.582031 -94.328125 95.378906 -92.644531 94.515625 -90.625 L 59.734375 -12.84375 C 56.179688 -5.050781 54.40625 -0.0976562 54.40625 2.015625 L 53.109375 2.015625 L 12.546875 -90.484375 C 11.203125 -93.566406 9.347656 -95.851562 6.984375 -97.34375 C 4.628906 -98.832031 2.253906 -99.578125 -0.140625 -99.578125 L -1.296875 -99.578125 L -1.296875 -101.015625 L 31.171875 -101.015625 L 31.171875 -99.578125 L 29.875 -99.578125 C 26.988281 -99.578125 25.0625 -98.226562 24.09375 -95.53125 C 23.90625 -94.957031 23.8125 -94.285156 23.8125 -93.515625 C 23.8125 -92.742188 24.050781 -91.78125 24.53125 -90.625 L 54.6875 -15.015625 L 86.15625 -90.625 C 86.539062 -91.78125 86.734375 -92.910156 86.734375 -94.015625 C 86.734375 -95.117188 86.226562 -96.320312 85.21875 -97.625 C 84.207031 -98.925781 82.691406 -99.578125 80.671875 -99.578125 L 79.375 -99.578125 L 79.375 -101.015625 L 108.375 -101.015625 Z M 108.375 -99.578125 "/></g></g></g><g fill="#008037" fill-opacity="1"><g transform="translate(132.07748, 122.701769)"><g><path d="M 129.875 -1.4375 L 132.1875 -1.4375 L 132.1875 0 L 100.875 0 L 100.875 -1.296875 L 103.03125 -1.296875 C 104.675781 -1.296875 106.070312 -1.941406 107.21875 -3.234375 C 108.375 -4.535156 108.859375 -5.957031 108.671875 -7.5 L 102.171875 -80.09375 L 71.875 -12.703125 C 69.175781 -6.828125 67.539062 -1.921875 66.96875 2.015625 L 65.515625 2.015625 L 28.578125 -78.078125 L 22.375 -7.5 C 22.175781 -5.957031 22.65625 -4.535156 23.8125 -3.234375 C 24.96875 -1.941406 26.316406 -1.296875 27.859375 -1.296875 L 30.15625 -1.296875 L 30.15625 0 L 2.171875 0 L 2.171875 -1.4375 L 4.46875 -1.4375 C 7.164062 -1.4375 9.5 -2.253906 11.46875 -3.890625 C 13.445312 -5.523438 14.628906 -7.738281 15.015625 -10.53125 L 25.828125 -103.03125 L 27.28125 -103.03125 L 67.53125 -16.015625 L 106.9375 -103.03125 L 108.234375 -103.03125 L 119.34375 -10.53125 C 119.820312 -6.6875 121.75 -3.992188 125.125 -2.453125 C 126.5625 -1.773438 128.144531 -1.4375 129.875 -1.4375 Z M 129.875 -1.4375 "/></g></g></g><g fill="#008037" fill-opacity="1"><g transform="translate(266.438102, 122.701769)"><g><path d="M 10.53125 -1.4375 C 13.03125 -1.4375 15.171875 -2.328125 16.953125 -4.109375 C 18.734375 -5.890625 19.671875 -8.03125 19.765625 -10.53125 L 19.765625 -90.625 C 19.671875 -93.125 18.734375 -95.238281 16.953125 -96.96875 C 15.171875 -98.707031 13.03125 -99.578125 10.53125 -99.578125 L 8.65625 -99.578125 L 8.65625 -101.015625 L 40.265625 -101.015625 L 40.265625 -99.578125 L 38.390625 -99.578125 C 35.890625 -99.578125 33.75 -98.707031 31.96875 -96.96875 C 30.1875 -95.238281 29.25 -93.125 29.15625 -90.625 L 29.15625 -10.53125 C 29.15625 -8.03125 30.066406 -5.890625 31.890625 -4.109375 C 33.722656 -2.328125 35.890625 -1.4375 38.390625 -1.4375 L 40.265625 -1.4375 L 40.265625 0 L 8.65625 0 L 8.65625 -1.4375 Z M 10.53125 -1.4375 "/></g></g></g><g clip-path="url(#66d550b1ac)"><path fill="#f6f3f0" d="M -26.175781 54.449219 L 367.566406 54.449219 L 367.566406 88.804688 L -26.175781 88.804688 Z M -26.175781 54.449219 " fill-opacity="1" fill-rule="nonzero"/></g><g fill="#008037" fill-opacity="1"><g transform="translate(26.662238, 76.796241)"><g><path d="M 10.84375 -9.96875 L 10.71875 -9.96875 C 10.382812 -9.96875 10.082031 -9.835938 9.8125 -9.578125 C 9.664062 -9.441406 9.546875 -9.269531 9.453125 -9.0625 L 5.984375 -1.28125 C 5.617188 -0.5 5.4375 -0.00390625 5.4375 0.203125 L 5.3125 0.203125 L 1.25 -9.046875 C 1.125 -9.359375 0.941406 -9.585938 0.703125 -9.734375 C 0.460938 -9.890625 0.222656 -9.96875 -0.015625 -9.96875 L -0.125 -9.96875 L -0.125 -10.109375 L 3.125 -10.109375 L 3.125 -9.96875 L 2.984375 -9.96875 C 2.703125 -9.96875 2.507812 -9.832031 2.40625 -9.5625 C 2.394531 -9.5 2.390625 -9.425781 2.390625 -9.34375 C 2.390625 -9.269531 2.410156 -9.175781 2.453125 -9.0625 L 5.46875 -1.5 L 8.625 -9.0625 C 8.65625 -9.175781 8.671875 -9.289062 8.671875 -9.40625 C 8.671875 -9.519531 8.617188 -9.640625 8.515625 -9.765625 C 8.421875 -9.898438 8.273438 -9.96875 8.078125 -9.96875 L 7.9375 -9.96875 L 7.9375 -10.109375 L 10.84375 -10.109375 Z M 10.84375 -9.96875 "/></g></g></g><g fill="#008037" fill-opacity="1"><g transform="translate(41.757979, 76.796241)"><g><path d="M 1.046875 -0.140625 C 1.296875 -0.140625 1.507812 -0.226562 1.6875 -0.40625 C 1.875 -0.582031 1.972656 -0.796875 1.984375 -1.046875 L 1.984375 -9.0625 C 1.972656 -9.3125 1.875 -9.523438 1.6875 -9.703125 C 1.507812 -9.878906 1.296875 -9.96875 1.046875 -9.96875 L 0.859375 -9.96875 L 0.859375 -10.109375 L 4.03125 -10.109375 L 4.03125 -9.96875 L 3.84375 -9.96875 C 3.59375 -9.96875 3.378906 -9.878906 3.203125 -9.703125 C 3.023438 -9.523438 2.929688 -9.3125 2.921875 -9.0625 L 2.921875 -1.046875 C 2.921875 -0.796875 3.007812 -0.582031 3.1875 -0.40625 C 3.375 -0.226562 3.59375 -0.140625 3.84375 -0.140625 L 4.03125 -0.140625 L 4.03125 0 L 0.859375 0 L 0.859375 -0.140625 Z M 1.046875 -0.140625 "/></g></g></g><g fill="#008037" fill-opacity="1"><g transform="translate(51.052095, 76.796241)"><g><path d="M 3.765625 -8.515625 C 3.410156 -8.515625 3.140625 -8.382812 2.953125 -8.125 C 2.878906 -8.007812 2.835938 -7.878906 2.828125 -7.734375 L 2.828125 0 C 2.828125 0.695312 2.5625 1.296875 2.03125 1.796875 C 1.507812 2.304688 0.894531 2.5625 0.1875 2.5625 L 0.1875 2.421875 C 0.65625 2.273438 1.054688 1.96875 1.390625 1.5 C 1.734375 1.03125 1.90625 0.53125 1.90625 0 L 1.90625 -7.796875 C 1.882812 -7.992188 1.785156 -8.160156 1.609375 -8.296875 C 1.429688 -8.441406 1.21875 -8.515625 0.96875 -8.515625 L 0.796875 -8.515625 L 0.78125 -8.65625 L 3.953125 -8.65625 L 3.953125 -8.515625 Z M 3.765625 -8.515625 "/></g></g></g><g fill="#008037" fill-opacity="1"><g transform="translate(59.927698, 76.796241)"><g><path d="M 9.53125 -0.140625 L 9.640625 -0.140625 L 9.640625 0 L 6.6875 0 L 6.6875 -0.140625 L 6.796875 -0.140625 C 6.984375 -0.140625 7.125 -0.203125 7.21875 -0.328125 C 7.3125 -0.453125 7.359375 -0.570312 7.359375 -0.6875 C 7.359375 -0.800781 7.34375 -0.910156 7.3125 -1.015625 L 6.515625 -2.9375 L 2.859375 -2.9375 L 2.0625 -1.046875 C 2.019531 -0.921875 2 -0.800781 2 -0.6875 C 2 -0.582031 2.046875 -0.460938 2.140625 -0.328125 C 2.234375 -0.203125 2.375 -0.140625 2.5625 -0.140625 L 2.6875 -0.140625 L 2.6875 0 L -0.078125 0 L -0.078125 -0.140625 L 0.046875 -0.140625 C 0.242188 -0.140625 0.445312 -0.207031 0.65625 -0.34375 C 0.863281 -0.488281 1.035156 -0.703125 1.171875 -0.984375 C 3.273438 -5.484375 4.375 -7.84375 4.46875 -8.0625 C 4.625 -8.457031 4.707031 -8.722656 4.71875 -8.859375 L 4.84375 -8.859375 L 8.421875 -0.984375 C 8.691406 -0.421875 9.0625 -0.140625 9.53125 -0.140625 Z M 3.046875 -3.359375 L 6.34375 -3.359375 L 4.71875 -7.3125 Z M 3.046875 -3.359375 "/></g></g></g><g fill="#008037" fill-opacity="1"><g transform="translate(73.912176, 76.796241)"><g><path d="M 9.3125 -8.515625 L 9.140625 -8.515625 C 8.878906 -8.515625 8.628906 -8.441406 8.390625 -8.296875 C 8.160156 -8.160156 7.96875 -7.988281 7.8125 -7.78125 L 5.03125 -3.578125 L 5.03125 -0.921875 C 5.03125 -0.710938 5.113281 -0.53125 5.28125 -0.375 C 5.445312 -0.21875 5.644531 -0.140625 5.875 -0.140625 L 6.046875 -0.140625 L 6.046875 0 L 3.09375 0 L 3.09375 -0.140625 L 3.265625 -0.140625 C 3.492188 -0.140625 3.6875 -0.21875 3.84375 -0.375 C 4.007812 -0.53125 4.09375 -0.710938 4.09375 -0.921875 L 4.09375 -3.59375 L 1.421875 -7.796875 C 1.097656 -8.273438 0.65625 -8.515625 0.09375 -8.515625 L -0.078125 -8.515625 L -0.078125 -8.65625 L 3.28125 -8.65625 L 3.28125 -8.515625 L 3.109375 -8.515625 C 2.921875 -8.515625 2.785156 -8.457031 2.703125 -8.34375 C 2.617188 -8.226562 2.578125 -8.128906 2.578125 -8.046875 C 2.578125 -7.960938 2.585938 -7.890625 2.609375 -7.828125 L 4.71875 -4.078125 L 6.953125 -7.8125 C 6.984375 -7.882812 7 -7.960938 7 -8.046875 C 7 -8.128906 6.957031 -8.226562 6.875 -8.34375 C 6.789062 -8.457031 6.65625 -8.515625 6.46875 -8.515625 L 6.296875 -8.515625 L 6.296875 -8.65625 L 9.3125 -8.65625 Z M 9.3125 -8.515625 "/></g></g></g><g fill="#008037" fill-opacity="1"><g transform="translate(87.564723, 76.796241)"><g/></g></g><g fill="#008037" fill-opacity="1"><g transform="translate(95.588842, 76.796241)"><g><path d="M 13 -0.140625 L 13.21875 -0.140625 L 13.21875 0 L 10.09375 0 L 10.09375 -0.125 L 10.3125 -0.125 C 10.46875 -0.125 10.601562 -0.1875 10.71875 -0.3125 C 10.84375 -0.445312 10.894531 -0.59375 10.875 -0.75 L 10.21875 -8.015625 L 7.1875 -1.265625 C 6.914062 -0.679688 6.753906 -0.191406 6.703125 0.203125 L 6.546875 0.203125 L 2.859375 -7.8125 L 2.234375 -0.75 C 2.210938 -0.59375 2.257812 -0.445312 2.375 -0.3125 C 2.5 -0.1875 2.632812 -0.125 2.78125 -0.125 L 3.015625 -0.125 L 3.015625 0 L 0.21875 0 L 0.21875 -0.140625 L 0.453125 -0.140625 C 0.722656 -0.140625 0.953125 -0.222656 1.140625 -0.390625 C 1.335938 -0.554688 1.457031 -0.773438 1.5 -1.046875 L 2.578125 -10.3125 L 2.734375 -10.3125 L 6.75 -1.609375 L 10.703125 -10.3125 L 10.828125 -10.3125 L 11.9375 -1.046875 C 11.988281 -0.660156 12.179688 -0.394531 12.515625 -0.25 C 12.660156 -0.175781 12.820312 -0.140625 13 -0.140625 Z M 13 -0.140625 "/></g></g></g><g fill="#008037" fill-opacity="1"><g transform="translate(113.441063, 76.796241)"><g><path d="M 10.34375 -0.140625 L 10.453125 -0.140625 L 10.453125 0 L 7.203125 0 L 7.203125 -0.140625 L 7.328125 -0.140625 C 7.535156 -0.140625 7.6875 -0.203125 7.78125 -0.328125 C 7.882812 -0.460938 7.9375 -0.585938 7.9375 -0.703125 C 7.9375 -0.816406 7.921875 -0.929688 7.890625 -1.046875 L 6.953125 -3.515625 L 3.0625 -3.515625 L 2.09375 -1.046875 C 2.050781 -0.921875 2.03125 -0.800781 2.03125 -0.6875 C 2.03125 -0.582031 2.082031 -0.460938 2.1875 -0.328125 C 2.289062 -0.203125 2.441406 -0.140625 2.640625 -0.140625 L 2.765625 -0.140625 L 2.765625 0 L -0.125 0 L -0.125 -0.140625 L 0 -0.140625 C 0.238281 -0.140625 0.472656 -0.21875 0.703125 -0.375 C 0.941406 -0.53125 1.128906 -0.753906 1.265625 -1.046875 L 4.53125 -8.828125 C 4.882812 -9.597656 5.0625 -10.09375 5.0625 -10.3125 L 5.203125 -10.3125 L 9.0625 -1.046875 C 9.195312 -0.753906 9.378906 -0.53125 9.609375 -0.375 C 9.847656 -0.21875 10.09375 -0.140625 10.34375 -0.140625 Z M 3.234375 -3.9375 L 6.78125 -3.9375 L 5.046875 -8.578125 Z M 3.234375 -3.9375 "/></g></g></g><g fill="#008037" fill-opacity="1"><g transform="translate(128.13271, 76.796241)"><g><path d="M 3.84375 -9.65625 L 2.921875 -9.65625 L 2.921875 -1.046875 C 2.921875 -0.796875 3.007812 -0.582031 3.1875 -0.40625 C 3.363281 -0.226562 3.582031 -0.140625 3.84375 -0.140625 L 4.015625 -0.140625 L 4.03125 0 L 0.859375 0 L 0.859375 -0.140625 L 1.046875 -0.140625 C 1.296875 -0.140625 1.507812 -0.226562 1.6875 -0.40625 C 1.875 -0.582031 1.972656 -0.796875 1.984375 -1.046875 L 1.984375 -9.046875 C 1.972656 -9.296875 1.875 -9.507812 1.6875 -9.6875 C 1.507812 -9.875 1.296875 -9.96875 1.046875 -9.96875 L 0.859375 -9.96875 L 0.859375 -10.109375 L 4.765625 -10.109375 C 5.640625 -10.109375 6.328125 -9.863281 6.828125 -9.375 C 7.328125 -8.882812 7.578125 -8.253906 7.578125 -7.484375 C 7.578125 -6.710938 7.335938 -6.046875 6.859375 -5.484375 C 6.390625 -4.921875 5.8125 -4.640625 5.125 -4.640625 C 5.269531 -4.566406 5.441406 -4.429688 5.640625 -4.234375 C 5.835938 -4.035156 6.015625 -3.832031 6.171875 -3.625 C 6.992188 -2.4375 7.53125 -1.707031 7.78125 -1.4375 C 8.03125 -1.164062 8.207031 -0.976562 8.3125 -0.875 C 8.414062 -0.769531 8.53125 -0.671875 8.65625 -0.578125 C 8.78125 -0.484375 8.90625 -0.40625 9.03125 -0.34375 C 9.3125 -0.207031 9.613281 -0.140625 9.9375 -0.140625 L 9.9375 0 L 9.140625 0 C 8.722656 0 8.335938 -0.0703125 7.984375 -0.21875 C 7.628906 -0.375 7.363281 -0.53125 7.1875 -0.6875 C 7.007812 -0.84375 6.851562 -0.992188 6.71875 -1.140625 C 6.59375 -1.296875 6.234375 -1.796875 5.640625 -2.640625 C 5.054688 -3.484375 4.710938 -3.96875 4.609375 -4.09375 C 4.515625 -4.21875 4.414062 -4.335938 4.3125 -4.453125 C 4.007812 -4.773438 3.703125 -4.9375 3.390625 -4.9375 L 3.390625 -5.078125 C 3.472656 -5.066406 3.578125 -5.0625 3.703125 -5.0625 C 3.828125 -5.0625 3.976562 -5.066406 4.15625 -5.078125 C 5.351562 -5.109375 6.101562 -5.609375 6.40625 -6.578125 C 6.46875 -6.773438 6.5 -6.957031 6.5 -7.125 C 6.5 -7.289062 6.5 -7.398438 6.5 -7.453125 C 6.476562 -8.097656 6.304688 -8.613281 5.984375 -9 C 5.671875 -9.394531 5.242188 -9.609375 4.703125 -9.640625 C 4.472656 -9.648438 4.1875 -9.65625 3.84375 -9.65625 Z M 3.84375 -9.65625 "/></g></g></g><g fill="#008037" fill-opacity="1"><g transform="translate(142.31923, 76.796241)"><g><path d="M 4.390625 0 L 0.859375 0 L 0.875 -0.140625 L 1.046875 -0.140625 C 1.296875 -0.140625 1.507812 -0.226562 1.6875 -0.40625 C 1.875 -0.582031 1.972656 -0.796875 1.984375 -1.046875 L 1.984375 -9.0625 C 1.984375 -9.3125 1.890625 -9.523438 1.703125 -9.703125 C 1.515625 -9.878906 1.296875 -9.96875 1.046875 -9.96875 L 0.875 -9.96875 L 0.859375 -10.109375 L 3.734375 -10.109375 C 4.722656 -10.109375 5.492188 -9.890625 6.046875 -9.453125 C 6.597656 -9.015625 6.875 -8.425781 6.875 -7.6875 C 6.875 -7.113281 6.71875 -6.632812 6.40625 -6.25 C 6.101562 -5.875 5.726562 -5.625 5.28125 -5.5 C 6.039062 -5.382812 6.640625 -5.070312 7.078125 -4.5625 C 7.523438 -4.050781 7.75 -3.40625 7.75 -2.625 C 7.75 -1.851562 7.453125 -1.222656 6.859375 -0.734375 C 6.273438 -0.242188 5.453125 0 4.390625 0 Z M 2.921875 -0.515625 L 4.328125 -0.515625 C 4.335938 -0.515625 4.347656 -0.515625 4.359375 -0.515625 C 5.085938 -0.515625 5.65625 -0.710938 6.0625 -1.109375 C 6.46875 -1.515625 6.671875 -2.082031 6.671875 -2.8125 C 6.671875 -3.226562 6.597656 -3.59375 6.453125 -3.90625 C 6.316406 -4.21875 6.144531 -4.46875 5.9375 -4.65625 C 5.375 -5.113281 4.535156 -5.34375 3.421875 -5.34375 C 3.421875 -5.34375 3.414062 -5.34375 3.40625 -5.34375 L 3.40625 -5.46875 C 3.414062 -5.46875 3.460938 -5.46875 3.546875 -5.46875 C 3.628906 -5.46875 3.742188 -5.476562 3.890625 -5.5 C 4.046875 -5.519531 4.21875 -5.550781 4.40625 -5.59375 C 4.601562 -5.644531 4.78125 -5.722656 4.9375 -5.828125 C 5.09375 -5.929688 5.238281 -6.054688 5.375 -6.203125 C 5.65625 -6.523438 5.796875 -7 5.796875 -7.625 C 5.796875 -8.257812 5.613281 -8.753906 5.25 -9.109375 C 4.882812 -9.460938 4.363281 -9.640625 3.6875 -9.640625 L 2.921875 -9.640625 Z M 2.921875 -0.515625 "/></g></g></g><g fill="#008037" fill-opacity="1"><g transform="translate(155.192458, 76.796241)"><g><path d="M 1.046875 -0.140625 C 1.296875 -0.140625 1.507812 -0.226562 1.6875 -0.40625 C 1.875 -0.582031 1.972656 -0.796875 1.984375 -1.046875 L 1.984375 -9.046875 C 1.972656 -9.296875 1.875 -9.507812 1.6875 -9.6875 C 1.507812 -9.875 1.296875 -9.96875 1.046875 -9.96875 L 0.859375 -9.96875 L 0.859375 -10.109375 L 4.03125 -10.109375 L 4.03125 -9.96875 L 3.84375 -9.96875 C 3.5 -9.96875 3.234375 -9.816406 3.046875 -9.515625 C 2.960938 -9.367188 2.921875 -9.210938 2.921875 -9.046875 L 2.921875 -0.453125 L 4.984375 -0.453125 C 5.691406 -0.453125 6.234375 -0.609375 6.609375 -0.921875 C 6.984375 -1.242188 7.296875 -1.71875 7.546875 -2.34375 L 7.6875 -2.34375 L 6.859375 0 L 0.859375 0 L 0.859375 -0.140625 Z M 1.046875 -0.140625 "/></g></g></g><g fill="#008037" fill-opacity="1"><g transform="translate(167.719319, 76.796241)"><g><path d="M 1.046875 -0.140625 C 1.296875 -0.140625 1.507812 -0.226562 1.6875 -0.40625 C 1.875 -0.582031 1.972656 -0.796875 1.984375 -1.046875 L 1.984375 -9.140625 C 1.953125 -9.367188 1.847656 -9.5625 1.671875 -9.71875 C 1.503906 -9.882812 1.296875 -9.96875 1.046875 -9.96875 L 0.875 -9.96875 L 0.859375 -10.109375 L 5.09375 -10.109375 C 5.394531 -10.109375 5.71875 -10.132812 6.0625 -10.1875 C 6.414062 -10.25 6.664062 -10.304688 6.8125 -10.359375 L 6.8125 -8.546875 L 6.671875 -8.546875 L 6.671875 -8.8125 C 6.671875 -9.039062 6.585938 -9.234375 6.421875 -9.390625 C 6.265625 -9.554688 6.078125 -9.644531 5.859375 -9.65625 L 2.921875 -9.65625 L 2.921875 -5.203125 L 5.359375 -5.203125 C 5.546875 -5.210938 5.707031 -5.28125 5.84375 -5.40625 C 5.976562 -5.539062 6.046875 -5.710938 6.046875 -5.921875 L 6.046875 -6.125 L 6.1875 -6.125 L 6.1875 -3.84375 L 6.046875 -3.84375 L 6.046875 -4.0625 C 6.046875 -4.25 5.976562 -4.410156 5.84375 -4.546875 C 5.71875 -4.679688 5.5625 -4.753906 5.375 -4.765625 L 2.921875 -4.765625 L 2.921875 -0.453125 L 4.984375 -0.453125 C 5.691406 -0.453125 6.234375 -0.609375 6.609375 -0.921875 C 6.984375 -1.242188 7.296875 -1.71875 7.546875 -2.34375 L 7.6875 -2.34375 L 6.859375 0 L 0.859375 0 L 0.859375 -0.140625 Z M 1.046875 -0.140625 "/></g></g></g><g fill="#008037" fill-opacity="1"><g transform="translate(180.462663, 76.796241)"><g/></g></g><g fill="#008037" fill-opacity="1"><g transform="translate(188.486782, 76.796241)"><g><path d="M 1.046875 -0.140625 C 1.296875 -0.140625 1.507812 -0.226562 1.6875 -0.40625 C 1.875 -0.582031 1.972656 -0.796875 1.984375 -1.046875 L 1.984375 -9.0625 C 1.972656 -9.3125 1.875 -9.523438 1.6875 -9.703125 C 1.507812 -9.878906 1.296875 -9.96875 1.046875 -9.96875 L 0.859375 -9.96875 L 0.859375 -10.109375 L 4.03125 -10.109375 L 4.03125 -9.96875 L 3.84375 -9.96875 C 3.59375 -9.96875 3.378906 -9.878906 3.203125 -9.703125 C 3.023438 -9.523438 2.929688 -9.3125 2.921875 -9.0625 L 2.921875 -1.046875 C 2.921875 -0.796875 3.007812 -0.582031 3.1875 -0.40625 C 3.375 -0.226562 3.59375 -0.140625 3.84375 -0.140625 L 4.03125 -0.140625 L 4.03125 0 L 0.859375 0 L 0.859375 -0.140625 Z M 1.046875 -0.140625 "/></g></g></g><g fill="#008037" fill-opacity="1"><g transform="translate(197.780895, 76.796241)"><g><path d="M 11.234375 -9.96875 C 10.992188 -9.96875 10.785156 -9.878906 10.609375 -9.703125 C 10.441406 -9.535156 10.351562 -9.332031 10.34375 -9.09375 L 10.34375 -1.640625 C 10.34375 -1.085938 10.375 -0.5625 10.4375 -0.0625 L 10.46875 0.203125 L 10.34375 0.203125 L 2.46875 -8.203125 L 2.46875 -1.015625 C 2.476562 -0.671875 2.628906 -0.421875 2.921875 -0.265625 C 3.054688 -0.179688 3.195312 -0.140625 3.34375 -0.140625 L 3.625 -0.140625 L 3.625 0 L 0.65625 0 L 0.65625 -0.140625 L 0.921875 -0.140625 C 1.160156 -0.140625 1.363281 -0.222656 1.53125 -0.390625 C 1.707031 -0.566406 1.796875 -0.78125 1.796875 -1.03125 L 1.796875 -8.515625 C 1.796875 -9.109375 1.765625 -9.632812 1.703125 -10.09375 L 1.671875 -10.328125 L 1.8125 -10.328125 L 9.6875 -1.921875 L 9.6875 -9.078125 C 9.675781 -9.328125 9.582031 -9.535156 9.40625 -9.703125 C 9.238281 -9.878906 9.035156 -9.96875 8.796875 -9.96875 L 8.515625 -9.96875 L 8.515625 -10.109375 L 11.5 -10.109375 L 11.5 -9.96875 Z M 11.234375 -9.96875 "/></g></g></g><g fill="#008037" fill-opacity="1"><g transform="translate(214.334246, 76.796241)"><g><path d="M 5.765625 -10.109375 C 7.304688 -10.109375 8.550781 -9.640625 9.5 -8.703125 C 10.457031 -7.773438 10.9375 -6.554688 10.9375 -5.046875 C 10.9375 -3.535156 10.457031 -2.316406 9.5 -1.390625 C 8.550781 -0.460938 7.304688 0 5.765625 0 L 0.859375 0 L 0.859375 -0.140625 L 1.046875 -0.140625 C 1.296875 -0.140625 1.507812 -0.226562 1.6875 -0.40625 C 1.875 -0.582031 1.972656 -0.796875 1.984375 -1.046875 L 1.984375 -9.140625 C 1.984375 -9.367188 1.890625 -9.5625 1.703125 -9.71875 C 1.515625 -9.882812 1.296875 -9.96875 1.046875 -9.96875 L 0.875 -9.96875 L 0.859375 -10.109375 Z M 2.921875 -9.671875 L 2.921875 -0.4375 L 5.765625 -0.4375 C 6.566406 -0.4375 7.273438 -0.628906 7.890625 -1.015625 C 8.515625 -1.398438 9 -1.941406 9.34375 -2.640625 C 9.6875 -3.335938 9.859375 -4.140625 9.859375 -5.046875 C 9.859375 -6.429688 9.476562 -7.546875 8.71875 -8.390625 C 7.96875 -9.242188 6.984375 -9.671875 5.765625 -9.671875 Z M 2.921875 -9.671875 "/></g></g></g><g fill="#008037" fill-opacity="1"><g transform="translate(230.396923, 76.796241)"><g><path d="M 10.609375 -9.96875 L 10.375 -9.96875 C 10.175781 -9.96875 10 -9.898438 9.84375 -9.765625 C 9.695312 -9.640625 9.617188 -9.476562 9.609375 -9.28125 L 9.609375 -3.5625 C 9.609375 -2.4375 9.253906 -1.523438 8.546875 -0.828125 C 7.835938 -0.140625 6.890625 0.203125 5.703125 0.203125 C 4.515625 0.203125 3.550781 -0.140625 2.8125 -0.828125 C 2.082031 -1.515625 1.71875 -2.421875 1.71875 -3.546875 L 1.71875 -9.234375 C 1.71875 -9.523438 1.59375 -9.738281 1.34375 -9.875 C 1.226562 -9.9375 1.097656 -9.96875 0.953125 -9.96875 L 0.71875 -9.96875 L 0.71875 -10.109375 L 3.65625 -10.109375 L 3.65625 -9.96875 L 3.421875 -9.96875 C 3.210938 -9.96875 3.035156 -9.898438 2.890625 -9.765625 C 2.742188 -9.640625 2.664062 -9.472656 2.65625 -9.265625 L 2.65625 -3.75 C 2.65625 -2.707031 2.9375 -1.863281 3.5 -1.21875 C 4.0625 -0.570312 4.8125 -0.25 5.75 -0.25 C 6.695312 -0.25 7.460938 -0.550781 8.046875 -1.15625 C 8.640625 -1.769531 8.9375 -2.570312 8.9375 -3.5625 L 8.9375 -9.265625 C 8.925781 -9.472656 8.847656 -9.640625 8.703125 -9.765625 C 8.554688 -9.898438 8.378906 -9.96875 8.171875 -9.96875 L 7.9375 -9.96875 L 7.9375 -10.109375 L 10.609375 -10.109375 Z M 10.609375 -9.96875 "/></g></g></g><g fill="#008037" fill-opacity="1"><g transform="translate(246.142094, 76.796241)"><g><path d="M 0.875 -0.59375 C 0.851562 -0.726562 0.84375 -0.988281 0.84375 -1.375 C 0.84375 -1.757812 0.910156 -2.164062 1.046875 -2.59375 L 1.1875 -2.59375 C 1.175781 -2.488281 1.171875 -2.382812 1.171875 -2.28125 C 1.171875 -1.695312 1.347656 -1.207031 1.703125 -0.8125 C 2.054688 -0.425781 2.53125 -0.234375 3.125 -0.234375 C 3.726562 -0.234375 4.222656 -0.414062 4.609375 -0.78125 C 5.003906 -1.144531 5.203125 -1.601562 5.203125 -2.15625 C 5.203125 -2.707031 5.015625 -3.160156 4.640625 -3.515625 L 1.859375 -6.078125 C 1.335938 -6.554688 1.078125 -7.132812 1.078125 -7.8125 C 1.078125 -8.5 1.304688 -9.085938 1.765625 -9.578125 C 2.222656 -10.066406 2.84375 -10.3125 3.625 -10.3125 C 3.988281 -10.3125 4.398438 -10.257812 4.859375 -10.15625 L 5.421875 -10.15625 L 5.421875 -8.390625 L 5.296875 -8.390625 C 5.296875 -8.835938 5.140625 -9.195312 4.828125 -9.46875 C 4.515625 -9.738281 4.113281 -9.875 3.625 -9.875 C 3.132812 -9.875 2.722656 -9.707031 2.390625 -9.375 C 2.054688 -9.050781 1.890625 -8.644531 1.890625 -8.15625 C 1.890625 -7.664062 2.082031 -7.242188 2.46875 -6.890625 L 5.3125 -4.265625 C 5.789062 -3.816406 6.03125 -3.207031 6.03125 -2.4375 C 6.03125 -1.664062 5.785156 -1.03125 5.296875 -0.53125 C 4.804688 -0.0390625 4.148438 0.203125 3.328125 0.203125 C 2.910156 0.203125 2.460938 0.132812 1.984375 0 C 1.503906 -0.125 1.132812 -0.320312 0.875 -0.59375 Z M 0.875 -0.59375 "/></g></g></g><g fill="#008037" fill-opacity="1"><g transform="translate(257.413385, 76.796241)"><g><path d="M 8.5 -8.828125 C 8.5 -9.054688 8.414062 -9.253906 8.25 -9.421875 C 8.09375 -9.585938 7.90625 -9.675781 7.6875 -9.6875 L 4.9375 -9.6875 L 4.9375 -1.046875 C 4.945312 -0.796875 5.039062 -0.582031 5.21875 -0.40625 C 5.394531 -0.226562 5.609375 -0.140625 5.859375 -0.140625 L 6.046875 -0.140625 L 6.046875 0 L 2.890625 0 L 2.890625 -0.140625 L 3.078125 -0.140625 C 3.328125 -0.140625 3.539062 -0.226562 3.71875 -0.40625 C 3.894531 -0.582031 3.988281 -0.789062 4 -1.03125 L 4 -9.6875 L 1.25 -9.6875 C 1.019531 -9.675781 0.828125 -9.585938 0.671875 -9.421875 C 0.515625 -9.253906 0.4375 -9.054688 0.4375 -8.828125 L 0.4375 -8.578125 L 0.28125 -8.5625 L 0.28125 -10.375 C 0.425781 -10.320312 0.675781 -10.265625 1.03125 -10.203125 C 1.394531 -10.148438 1.722656 -10.125 2.015625 -10.125 L 6.90625 -10.125 C 7.375 -10.125 7.765625 -10.160156 8.078125 -10.234375 C 8.390625 -10.304688 8.578125 -10.351562 8.640625 -10.375 L 8.640625 -8.5625 L 8.5 -8.578125 Z M 8.5 -8.828125 "/></g></g></g><g fill="#008037" fill-opacity="1"><g transform="translate(270.74844, 76.796241)"><g><path d="M 3.84375 -9.65625 L 2.921875 -9.65625 L 2.921875 -1.046875 C 2.921875 -0.796875 3.007812 -0.582031 3.1875 -0.40625 C 3.363281 -0.226562 3.582031 -0.140625 3.84375 -0.140625 L 4.015625 -0.140625 L 4.03125 0 L 0.859375 0 L 0.859375 -0.140625 L 1.046875 -0.140625 C 1.296875 -0.140625 1.507812 -0.226562 1.6875 -0.40625 C 1.875 -0.582031 1.972656 -0.796875 1.984375 -1.046875 L 1.984375 -9.046875 C 1.972656 -9.296875 1.875 -9.507812 1.6875 -9.6875 C 1.507812 -9.875 1.296875 -9.96875 1.046875 -9.96875 L 0.859375 -9.96875 L 0.859375 -10.109375 L 4.765625 -10.109375 C 5.640625 -10.109375 6.328125 -9.863281 6.828125 -9.375 C 7.328125 -8.882812 7.578125 -8.253906 7.578125 -7.484375 C 7.578125 -6.710938 7.335938 -6.046875 6.859375 -5.484375 C 6.390625 -4.921875 5.8125 -4.640625 5.125 -4.640625 C 5.269531 -4.566406 5.441406 -4.429688 5.640625 -4.234375 C 5.835938 -4.035156 6.015625 -3.832031 6.171875 -3.625 C 6.992188 -2.4375 7.53125 -1.707031 7.78125 -1.4375 C 8.03125 -1.164062 8.207031 -0.976562 8.3125 -0.875 C 8.414062 -0.769531 8.53125 -0.671875 8.65625 -0.578125 C 8.78125 -0.484375 8.90625 -0.40625 9.03125 -0.34375 C 9.3125 -0.207031 9.613281 -0.140625 9.9375 -0.140625 L 9.9375 0 L 9.140625 0 C 8.722656 0 8.335938 -0.0703125 7.984375 -0.21875 C 7.628906 -0.375 7.363281 -0.53125 7.1875 -0.6875 C 7.007812 -0.84375 6.851562 -0.992188 6.71875 -1.140625 C 6.59375 -1.296875 6.234375 -1.796875 5.640625 -2.640625 C 5.054688 -3.484375 4.710938 -3.96875 4.609375 -4.09375 C 4.515625 -4.21875 4.414062 -4.335938 4.3125 -4.453125 C 4.007812 -4.773438 3.703125 -4.9375 3.390625 -4.9375 L 3.390625 -5.078125 C 3.472656 -5.066406 3.578125 -5.0625 3.703125 -5.0625 C 3.828125 -5.0625 3.976562 -5.066406 4.15625 -5.078125 C 5.351562 -5.109375 6.101562 -5.609375 6.40625 -6.578125 C 6.46875 -6.773438 6.5 -6.957031 6.5 -7.125 C 6.5 -7.289062 6.5 -7.398438 6.5 -7.453125 C 6.476562 -8.097656 6.304688 -8.613281 5.984375 -9 C 5.671875 -9.394531 5.242188 -9.609375 4.703125 -9.640625 C 4.472656 -9.648438 4.1875 -9.65625 3.84375 -9.65625 Z M 3.84375 -9.65625 "/></g></g></g><g fill="#008037" fill-opacity="1"><g transform="translate(284.934974, 76.796241)"><g><path d="M 1.046875 -0.140625 C 1.296875 -0.140625 1.507812 -0.226562 1.6875 -0.40625 C 1.875 -0.582031 1.972656 -0.796875 1.984375 -1.046875 L 1.984375 -9.0625 C 1.972656 -9.3125 1.875 -9.523438 1.6875 -9.703125 C 1.507812 -9.878906 1.296875 -9.96875 1.046875 -9.96875 L 0.859375 -9.96875 L 0.859375 -10.109375 L 4.03125 -10.109375 L 4.03125 -9.96875 L 3.84375 -9.96875 C 3.59375 -9.96875 3.378906 -9.878906 3.203125 -9.703125 C 3.023438 -9.523438 2.929688 -9.3125 2.921875 -9.0625 L 2.921875 -1.046875 C 2.921875 -0.796875 3.007812 -0.582031 3.1875 -0.40625 C 3.375 -0.226562 3.59375 -0.140625 3.84375 -0.140625 L 4.03125 -0.140625 L 4.03125 0 L 0.859375 0 L 0.859375 -0.140625 Z M 1.046875 -0.140625 "/></g></g></g><g fill="#008037" fill-opacity="1"><g transform="translate(294.229101, 76.796241)"><g><path d="M 1.046875 -0.140625 C 1.296875 -0.140625 1.507812 -0.226562 1.6875 -0.40625 C 1.875 -0.582031 1.972656 -0.796875 1.984375 -1.046875 L 1.984375 -9.140625 C 1.953125 -9.367188 1.847656 -9.5625 1.671875 -9.71875 C 1.503906 -9.882812 1.296875 -9.96875 1.046875 -9.96875 L 0.875 -9.96875 L 0.859375 -10.109375 L 5.09375 -10.109375 C 5.394531 -10.109375 5.71875 -10.132812 6.0625 -10.1875 C 6.414062 -10.25 6.664062 -10.304688 6.8125 -10.359375 L 6.8125 -8.546875 L 6.671875 -8.546875 L 6.671875 -8.8125 C 6.671875 -9.039062 6.585938 -9.234375 6.421875 -9.390625 C 6.265625 -9.554688 6.078125 -9.644531 5.859375 -9.65625 L 2.921875 -9.65625 L 2.921875 -5.203125 L 5.359375 -5.203125 C 5.546875 -5.210938 5.707031 -5.28125 5.84375 -5.40625 C 5.976562 -5.539062 6.046875 -5.710938 6.046875 -5.921875 L 6.046875 -6.125 L 6.1875 -6.125 L 6.1875 -3.84375 L 6.046875 -3.84375 L 6.046875 -4.0625 C 6.046875 -4.25 5.976562 -4.410156 5.84375 -4.546875 C 5.71875 -4.679688 5.5625 -4.753906 5.375 -4.765625 L 2.921875 -4.765625 L 2.921875 -0.453125 L 4.984375 -0.453125 C 5.691406 -0.453125 6.234375 -0.609375 6.609375 -0.921875 C 6.984375 -1.242188 7.296875 -1.71875 7.546875 -2.34375 L 7.6875 -2.34375 L 6.859375 0 L 0.859375 0 L 0.859375 -0.140625 Z M 1.046875 -0.140625 "/></g></g></g><g fill="#008037" fill-opacity="1"><g transform="translate(306.972445, 76.796241)"><g><path d="M 0.875 -0.59375 C 0.851562 -0.726562 0.84375 -0.988281 0.84375 -1.375 C 0.84375 -1.757812 0.910156 -2.164062 1.046875 -2.59375 L 1.1875 -2.59375 C 1.175781 -2.488281 1.171875 -2.382812 1.171875 -2.28125 C 1.171875 -1.695312 1.347656 -1.207031 1.703125 -0.8125 C 2.054688 -0.425781 2.53125 -0.234375 3.125 -0.234375 C 3.726562 -0.234375 4.222656 -0.414062 4.609375 -0.78125 C 5.003906 -1.144531 5.203125 -1.601562 5.203125 -2.15625 C 5.203125 -2.707031 5.015625 -3.160156 4.640625 -3.515625 L 1.859375 -6.078125 C 1.335938 -6.554688 1.078125 -7.132812 1.078125 -7.8125 C 1.078125 -8.5 1.304688 -9.085938 1.765625 -9.578125 C 2.222656 -10.066406 2.84375 -10.3125 3.625 -10.3125 C 3.988281 -10.3125 4.398438 -10.257812 4.859375 -10.15625 L 5.421875 -10.15625 L 5.421875 -8.390625 L 5.296875 -8.390625 C 5.296875 -8.835938 5.140625 -9.195312 4.828125 -9.46875 C 4.515625 -9.738281 4.113281 -9.875 3.625 -9.875 C 3.132812 -9.875 2.722656 -9.707031 2.390625 -9.375 C 2.054688 -9.050781 1.890625 -8.644531 1.890625 -8.15625 C 1.890625 -7.664062 2.082031 -7.242188 2.46875 -6.890625 L 5.3125 -4.265625 C 5.789062 -3.816406 6.03125 -3.207031 6.03125 -2.4375 C 6.03125 -1.664062 5.785156 -1.03125 5.296875 -0.53125 C 4.804688 -0.0390625 4.148438 0.203125 3.328125 0.203125 C 2.910156 0.203125 2.460938 0.132812 1.984375 0 C 1.503906 -0.125 1.132812 -0.320312 0.875 -0.59375 Z M 0.875 -0.59375 "/></g></g></g></svg>